<?xml version="1.0" encoding="UTF-8"?>
<svg id="Layer_1" data-name="Layer 1" xmlns="http://www.w3.org/2000/svg" viewBox="0 0 51.02 51.02">
  <path d="m2.03,25.51c0,12.97,10.51,23.48,23.48,23.48s23.48-10.51,23.48-23.48S38.48,2.03,25.52,2.03,2.03,12.54,2.03,25.51Zm16.49,9.63l11.37-9.62-11.37-9.61c-.68-.58-.68-1.53,0-2.12.68-.58,1.8-.58,2.49,0l12.64,10.67h0c.08.07.13.16.19.24s.14.16.19.25c.05.09.05.19.07.28.01.09.06.19.06.28s-.04.19-.06.28c-.02.09-.02.19-.07.28s-.13.17-.2.25-.11.17-.19.24h0l-12.64,10.68c-.35.3-.8.44-1.24.44s-.9-.14-1.24-.44c-.69-.59-.69-1.54,0-2.12v.02Z"/>
</svg>