<?xml version="1.0" encoding="UTF-8"?>
<svg id="Layer_1" data-name="Layer 1" xmlns="http://www.w3.org/2000/svg" viewBox="0 0 51.02 51.02">
  <defs>
    <style>
      .cls-1 {
        fill: #fff;
      }

      .cls-2, .cls-3 {
        stroke: #fff;
      }

      .cls-3 {
        stroke-width: .75px;
      }
    </style>
  </defs>
  <g id="Group_44" data-name="Group 44">
    <rect id="Rectangle_32" data-name="Rectangle 32" class="cls-2" x="6.92" y="6.92" width="37.19" height="37.19" rx="5.78" ry="5.78"/>
    <path id="Path_8247-2" data-name="Path 8247-2" class="cls-3" d="m12.69,6.92h25.63c3.19,0,5.78,2.59,5.78,5.78h0v25.63c0,3.19-2.59,5.78-5.78,5.78H12.69c-3.19,0-5.78-2.59-5.78-5.78h0V12.69c0-3.19,2.59-5.78,5.78-5.78h0Z"/>
  </g>
  <g id="Group_5342" data-name="Group 5342">
    <path id="Path_53" data-name="Path 53" class="cls-1" d="m17.13,15.63h3.65c.51,0,.93-.42.93-.93s-.42-.93-.93-.93h-4.03c-1.54,0-2.79,1.25-2.79,2.79v4.05c0,.51.42.93.93.93s.93-.42.93-.93v-3.65l5.71,5.7c.41.31.99.23,1.3-.18.25-.33.25-.79,0-1.12l-5.7-5.72Z"/>
    <path id="Path_54" data-name="Path 54" class="cls-1" d="m21.53,28.68l-5.71,5.73v-3.65c0-.51-.42-.93-.93-.93s-.93.42-.93.93v4.05c0,1.54,1.25,2.79,2.79,2.79h4.05c.51,0,.93-.42.93-.94,0-.51-.42-.92-.93-.93h-3.65l5.71-5.71c.31-.41.23-.99-.18-1.3-.33-.25-.79-.25-1.12,0l-.03-.04Z"/>
    <path id="Path_55" data-name="Path 55" class="cls-1" d="m36.83,29.81c-.51,0-.93.42-.93.93v3.65l-5.71-5.71c-.31-.41-.89-.49-1.3-.18s-.49.89-.18,1.3c.05.07.11.13.18.18l5.71,5.74h-3.65c-.51,0-.93.42-.93.94,0,.51.42.92.93.93h4.05c1.54,0,2.79-1.25,2.79-2.79v-4.05c0-.51-.42-.93-.93-.93,0,0-.01,0-.02,0Z"/>
    <path id="Path_56" data-name="Path 56" class="cls-1" d="m34.97,13.77h-4.05c-.51,0-.93.42-.93.93s.42.93.93.93h3.65l-5.71,5.71c-.31.41-.23.99.18,1.3.33.25.79.25,1.12,0l5.73-5.7v3.65c0,.51.41.93.93.94s.93-.41.94-.93h0v-4.04c0-1.54-1.25-2.79-2.79-2.79Z"/>
  </g>
</svg>